<mxfile host="app.diagrams.net" modified="2023-03-24T18:39:36.650Z" agent="Mozilla/5.0 (Windows NT 10.0; Win64; x64) AppleWebKit/537.36 (KHTML, like Gecko) Chrome/108.0.0.0 YaBrowser/23.1.5.708 Yowser/2.5 Safari/537.36" etag="50TiiVNl4zrvPkVrah5r" version="21.1.0" type="github">
  <diagram name="Страница 1" id="f4uh0O3NRTXSAduKlEtB">
    <mxGraphModel dx="1434" dy="791" grid="1" gridSize="10" guides="1" tooltips="1" connect="1" arrows="1" fold="1" page="1" pageScale="1" pageWidth="827" pageHeight="1169" background="#ffffff" math="0" shadow="0">
      <root>
        <mxCell id="0" />
        <mxCell id="1" parent="0" />
        <mxCell id="LyYLJt8kivp5vu9TETwr-1" value="Sitemap" style="rounded=0;whiteSpace=wrap;html=1;fontSize=14;fontStyle=1;fillColor=none;" vertex="1" parent="1">
          <mxGeometry width="120" height="40" as="geometry" />
        </mxCell>
        <mxCell id="LyYLJt8kivp5vu9TETwr-3" value="Version 1" style="text;html=1;strokeColor=none;fillColor=none;align=center;verticalAlign=middle;whiteSpace=wrap;rounded=0;" vertex="1" parent="1">
          <mxGeometry x="720" width="107" height="40" as="geometry" />
        </mxCell>
        <mxCell id="LyYLJt8kivp5vu9TETwr-11" style="edgeStyle=orthogonalEdgeStyle;rounded=0;orthogonalLoop=1;jettySize=auto;html=1;exitX=0.25;exitY=1;exitDx=0;exitDy=0;entryX=0.5;entryY=0;entryDx=0;entryDy=0;endArrow=none;endFill=0;" edge="1" parent="1" source="LyYLJt8kivp5vu9TETwr-4" target="LyYLJt8kivp5vu9TETwr-6">
          <mxGeometry relative="1" as="geometry" />
        </mxCell>
        <mxCell id="LyYLJt8kivp5vu9TETwr-12" style="edgeStyle=orthogonalEdgeStyle;rounded=0;orthogonalLoop=1;jettySize=auto;html=1;exitX=0.5;exitY=1;exitDx=0;exitDy=0;entryX=0.5;entryY=0;entryDx=0;entryDy=0;endArrow=none;endFill=0;" edge="1" parent="1" source="LyYLJt8kivp5vu9TETwr-4" target="LyYLJt8kivp5vu9TETwr-7">
          <mxGeometry relative="1" as="geometry" />
        </mxCell>
        <mxCell id="LyYLJt8kivp5vu9TETwr-13" style="edgeStyle=orthogonalEdgeStyle;rounded=0;orthogonalLoop=1;jettySize=auto;html=1;exitX=0.75;exitY=1;exitDx=0;exitDy=0;entryX=0.5;entryY=0;entryDx=0;entryDy=0;endArrow=none;endFill=0;" edge="1" parent="1" source="LyYLJt8kivp5vu9TETwr-4" target="LyYLJt8kivp5vu9TETwr-8">
          <mxGeometry relative="1" as="geometry" />
        </mxCell>
        <mxCell id="LyYLJt8kivp5vu9TETwr-4" value="Main Page" style="rounded=0;whiteSpace=wrap;html=1;" vertex="1" parent="1">
          <mxGeometry x="354" y="80" width="120" height="60" as="geometry" />
        </mxCell>
        <mxCell id="LyYLJt8kivp5vu9TETwr-6" value="Authorization Page" style="rounded=0;whiteSpace=wrap;html=1;fillColor=#E6E6E6;" vertex="1" parent="1">
          <mxGeometry x="160" y="200" width="120" height="60" as="geometry" />
        </mxCell>
        <mxCell id="LyYLJt8kivp5vu9TETwr-15" style="edgeStyle=orthogonalEdgeStyle;rounded=0;orthogonalLoop=1;jettySize=auto;html=1;exitX=0;exitY=0.5;exitDx=0;exitDy=0;entryX=0;entryY=0.5;entryDx=0;entryDy=0;endArrow=none;endFill=0;" edge="1" parent="1" source="LyYLJt8kivp5vu9TETwr-7" target="LyYLJt8kivp5vu9TETwr-14">
          <mxGeometry relative="1" as="geometry" />
        </mxCell>
        <mxCell id="LyYLJt8kivp5vu9TETwr-7" value="Parse" style="rounded=0;whiteSpace=wrap;html=1;fillColor=#E6E6E6;" vertex="1" parent="1">
          <mxGeometry x="354" y="200" width="120" height="60" as="geometry" />
        </mxCell>
        <mxCell id="LyYLJt8kivp5vu9TETwr-8" value="Data" style="rounded=0;whiteSpace=wrap;html=1;fillColor=#E6E6E6;" vertex="1" parent="1">
          <mxGeometry x="560" y="200" width="120" height="60" as="geometry" />
        </mxCell>
        <mxCell id="LyYLJt8kivp5vu9TETwr-14" value="Create New Parse" style="rounded=0;whiteSpace=wrap;html=1;fillColor=#CCCCCC;" vertex="1" parent="1">
          <mxGeometry x="354" y="280" width="120" height="60" as="geometry" />
        </mxCell>
      </root>
    </mxGraphModel>
  </diagram>
</mxfile>
